<svg id="SvgjsSvg1011" width="288" height="288" xmlns="http://www.w3.org/2000/svg" version="1.1" xmlns:xlink="http://www.w3.org/1999/xlink" xmlns:svgjs="http://svgjs.com/svgjs"><defs id="SvgjsDefs1012"></defs><g id="SvgjsG1013"><svg xmlns="http://www.w3.org/2000/svg" width="288" height="288" viewBox="0 0 48 48"><path d="M39 48H9c-4.971 0-9-4.032-9-9V9a9 9 0 0 1 9-9h30c4.968 0 9 4.029 9 9v30c0 4.968-4.032 9-9 9zm3-39a3 3 0 0 0-3-3H9C7.344 6 6 7.344 6 9v30a3 3 0 0 0 3 3h30c1.659 0 3-1.341 3-3V9zM12 24h24v3H12v-3zm0-6h24v3H12v-3zm0-6h24v3H12v-3zm12 21H12v-3h12v3z" fill="#9254c8" class="color000 svgShape"></path></svg></g></svg>