<svg id="SvgjsSvg1011" width="288" height="288" xmlns="http://www.w3.org/2000/svg" version="1.1" xmlns:xlink="http://www.w3.org/1999/xlink" xmlns:svgjs="http://svgjs.com/svgjs"><defs id="SvgjsDefs1012"></defs><g id="SvgjsG1013"><svg xmlns="http://www.w3.org/2000/svg" viewBox="0 0 24 24" width="288" height="288"><path d="M12,10.8a2,2,0,1,0-2-2A2,2,0,0,0,12,10.8Zm-.71,6.91a1,1,0,0,0,1.42,0l4.09-4.1a6.79,6.79,0,1,0-9.6,0ZM7.23,8.34A4.81,4.81,0,0,1,9.36,4.79a4.81,4.81,0,0,1,5.28,0,4.82,4.82,0,0,1,.75,7.41L12,15.59,8.61,12.2A4.77,4.77,0,0,1,7.23,8.34ZM19,20H5a1,1,0,0,0,0,2H19a1,1,0,0,0,0-2Z" fill="#9254c8" class="color000 svgShape"></path></svg></g></svg>