<svg id="SvgjsSvg1012" width="288" height="288" xmlns="http://www.w3.org/2000/svg" version="1.1" xmlns:xlink="http://www.w3.org/1999/xlink" xmlns:svgjs="http://svgjs.com/svgjs"><defs id="SvgjsDefs1013"></defs><g id="SvgjsG1014"><svg xmlns="http://www.w3.org/2000/svg" width="288" height="288" viewBox="0 0 44.636 34"><g data-name="Group 1" transform="translate(0 -61)" fill="#9254c8" class="color000 svgShape"><path fill="#9254c8" d="M40.713,61H3.923A3.93,3.93,0,0,0,0,64.923V91.077A3.929,3.929,0,0,0,3.923,95h36.79a3.929,3.929,0,0,0,3.923-3.923V64.923A3.929,3.929,0,0,0,40.713,61Zm-.542,2.615L22.4,81.385,4.477,63.615ZM2.615,90.535V65.452l12.6,12.488Zm1.849,1.849,12.6-12.6,4.416,4.378a1.308,1.308,0,0,0,1.845,0l4.306-4.306L40.171,92.385Zm37.556-1.849L29.485,78,42.021,65.465Z" data-name="Path 2" class="coloraeaeae svgShape"></path></g></svg></g></svg>