<svg id="SvgjsSvg1001" width="288" height="288" xmlns="http://www.w3.org/2000/svg" version="1.1" xmlns:xlink="http://www.w3.org/1999/xlink" xmlns:svgjs="http://svgjs.com/svgjs"><defs id="SvgjsDefs1002"></defs><g id="SvgjsG1008" transform="matrix(1,0,0,1,0,0)"><svg xmlns="http://www.w3.org/2000/svg" width="288" height="288" viewBox="0 0 44.5 44.5"><g data-name="Group 2" fill="#303a52" class="color000 svgShape"><path fill="#9254c8" d="M37.983,28.767a22.165,22.165,0,0,0-8.455-5.3,12.863,12.863,0,1,0-14.556,0A22.285,22.285,0,0,0,0,44.5H3.477a18.773,18.773,0,1,1,37.547,0H44.5A22.1,22.1,0,0,0,37.983,28.767ZM22.25,22.25a9.387,9.387,0,1,1,9.387-9.387A9.4,9.4,0,0,1,22.25,22.25Z" data-name="Path 3" class="coloraeaeae svgShape"></path></g></svg></g></svg>