<svg id="SvgjsSvg1068" width="288" height="288" xmlns="http://www.w3.org/2000/svg" version="1.1" xmlns:xlink="http://www.w3.org/1999/xlink" xmlns:svgjs="http://svgjs.com/svgjs"><defs id="SvgjsDefs1069"></defs><g id="SvgjsG1070"><svg xmlns="http://www.w3.org/2000/svg" enable-background="new 0 0 512 512" viewBox="0 0 512 512" width="288" height="288"><path d="M324.958,187.046c58.347,58.407,57.546,152.048,0.352,209.56c-0.107,0.117-0.234,0.244-0.352,0.361l-65.625,65.625c-57.881,57.881-152.05,57.873-209.922,0c-57.881-57.871-57.881-152.05,0-209.921l36.236-36.236c9.609-9.609,26.158-3.223,26.654,10.357c0.633,17.307,3.736,34.694,9.463,51.485c1.939,5.686,0.554,11.975-3.694,16.223l-12.78,12.78c-27.369,27.369-28.228,71.933-1.128,99.57c27.367,27.909,72.35,28.075,99.927,0.498l65.625-65.615c27.53-27.53,27.415-72.028,0-99.443c-3.614-3.607-7.255-6.41-10.099-8.368c-4.079-2.801-6.595-7.366-6.784-12.311c-0.387-10.319,3.27-20.953,11.424-29.107l20.561-20.561c5.392-5.392,13.85-6.054,20.102-1.69C312.076,175.252,318.783,180.871,324.958,187.046L324.958,187.046z" fill="#9254c8" class="color000 svgShape"></path><path d="M462.59,49.408c-57.872-57.873-152.041-57.881-209.922,0l-65.625,65.625c-0.117,0.117-0.244,0.244-0.352,0.361c-57.193,57.512-57.995,151.153,0.352,209.56c6.175,6.174,12.88,11.794,20.04,16.793c6.252,4.363,14.711,3.7,20.102-1.69l20.561-20.561c8.154-8.154,11.811-18.788,11.424-29.107c-0.189-4.945-2.705-9.509-6.784-12.31c-2.844-1.958-6.484-4.761-10.099-8.368c-27.415-27.415-27.53-71.913,0-99.443l65.625-65.615c27.577-27.577,72.559-27.411,99.927,0.498c27.1,27.637,26.242,72.201-1.128,99.57l-12.78,12.78c-4.248,4.248-5.634,10.537-3.694,16.223c5.727,16.791,8.83,34.179,9.463,51.485c0.497,13.58,17.045,19.967,26.654,10.357l36.236-36.236C520.47,201.458,520.47,107.279,462.59,49.408L462.59,49.408z" fill="#9254c8" class="color000 svgShape"></path></svg></g></svg>